<?xml version="1.0" encoding="utf-8"?>
<!-- Svg Vector Icons : http://www.onlinewebfonts.com/icon -->
<!DOCTYPE svg PUBLIC "-//W3C//DTD SVG 1.1//EN" "http://www.w3.org/Graphics/SVG/1.1/DTD/svg11.dtd">
<svg version="1.1" xmlns="http://www.w3.org/2000/svg" xmlns:xlink="http://www.w3.org/1999/xlink" x="0px" y="0px" viewBox="0 0 1000 1000" enable-background="new 0 0 1000 1000" xml:space="preserve">
<metadata> Svg Vector Icons : http://www.onlinewebfonts.com/icon </metadata>
<g><g transform="translate(0.000000,512.000000) scale(0.100000,-0.100000)"><path d="M4622.6,5016.9c-693.8-70.9-1213.2-214.7-1782.4-494.5c-500.2-245.3-856.7-498.3-1263-891.2c-417.8-408.2-722.6-828-981.3-1353.1c-241.5-494.5-389.1-979.4-471.5-1552.4c-32.6-226.2-32.6-981.3,0-1207.5c136.1-950.6,504.1-1803.5,1082.9-2506.9c1353.1-1642.5,3595.5-2229,5571.5-1458.5C8043.7-3952.7,9071-2923.5,9569.3-1650.9C9772.5-1127.7,9876-625.6,9897-41c46,1326.3-446.6,2604.6-1374.2,3562.9c-421.7,435.1-833.7,736-1370.4,998.5c-483,237.7-927.6,377.6-1466.2,460C5492.8,5009.2,4789.4,5034.1,4622.6,5016.9z M4948.4,3165.4c-3.8-24.9-51.8-368-105.4-762.8c-53.7-394.8-101.6-741.7-107.3-772.4l-11.5-51.8l437,3.8l438.9,5.8l115,810.7l115,808.8h329.7c304.7,0,331.6-1.9,331.6-34.5c0-17.3-47.9-377.6-105.4-799.2s-105.4-772.4-105.4-780c0-9.6,164.8-15.3,364.2-15.3h364.2v-345v-345h-421.7c-323.9,0-421.7-5.8-421.7-23c-1.9-13.4-34.5-266.4-72.8-561.6l-72.8-536.7l369.9-5.7l369.9-3.8v-345v-345h-429.3h-427.4l-11.5-70.9c-5.7-40.2-55.6-415.9-111.2-835.6l-101.6-760.9h-341.2c-260.6,0-341.2,5.7-341.2,24.9c0,26.8,205.1,1508.3,218.5,1590.8l11.5,51.7h-431.2h-429.3l-11.5-61.3c-11.5-74.7-220.4-1575.4-220.4-1594.6c0-5.8-153.3-11.5-341.1-11.5h-341.1l109.2,782c61.3,429.3,111.2,799.2,111.2,822.2c1.9,42.2,0,44.1-356.5,47.9l-360.3,5.7l-5.7,350.7l-3.8,348.8h419.7H3787l11.5,63.2c23,132.3,143.7,998.5,143.7,1031.1c0,34.5-23,36.4-383.3,36.4h-383.3v345v345h437h438.9l109.2,782c61.3,429.3,115,795.4,118.8,814.5c9.6,28.8,42.2,32.6,345,32.6H4958L4948.4,3165.4z"/><path d="M4549.8,348.1c-40.2-299-70.9-553.9-70.9-565.4c0-19.2,99.7-24.9,431.2-24.9c237.7,0,431.2,5.7,431.2,11.5c0,26.8,136.1,1036.9,143.7,1077.1l9.6,42.2h-437h-437L4549.8,348.1z"/></g></g>
</svg>